<svg xmlns="http://www.w3.org/2000/svg" viewBox="0 0 772.7 366.2"><style>.st0{fill:#011688}.st1{fill:#fff}.st2,.st3{fill:none;stroke:#000;stroke-miterlimit:10}.st3{stroke:#fff}</style><path d="M531.6 204c-13.6 0-21.9-9.4-21.9-26v-15.5c0-16.6 8.2-26 21.9-26 13.6 0 21.9 9.4 21.9 26V178c-.2 16.6-8.4 26-21.9 26m27.5 27.4h-16V223c21-4.7 34.3-22.6 34.3-52.7 0-35.4-18.2-53.9-45.8-53.9-27.6 0-45.8 18.5-45.8 53.9 0 31.1 14 49.1 36.2 53.2v4.3c0 14.4 7 22.1 23.1 22.1h14v-18.5zm-142.2-9h12.3V118.1h-16.5l-30 56.1h-.7l-29.9-56.1h-16.5v104.3h12.3v-87.7h.7l8.8 17.3 24.8 45.4 24.9-45.4 8.8-17.4h.7v87.8h.3zm-166.1-93.2h28.9c9.8 0 15.8 5.3 15.8 14.5v5c0 9.2-6 14.5-15.8 14.5h-28.9v-34zm0 44.8h30.9c10.8 0 17.3 5.7 17.3 16.1v5c0 10.4-6.5 16.1-17.3 16.1h-30.9V174zm-12.7 48.4h47.3c15.4 0 26.9-13 26.9-30.2 0-17.3-13-23.7-20.5-24.2v-.9c6.9-1.1 16.8-6.5 16.8-22.1 0-16.2-10.6-26.9-27.8-26.9H238v104.3h.1zm-22.8 0V212h-14.6v-83.3h14.6v-10.4h-41.8v10.4h14.6V212h-14.6v10.4h41.8zm375.8-93.8V124l-.1-3.2h.1l3 5.7 3.2-5.7h.1l-.1 3.2v4.6h2v-10.5h-2.6l-2.5 4.8h-.1l-2.6-4.8h-2.6v10.5h2.2zm-6.6 0v-8.8h3.3V118h-8.7v1.8h3.3v8.8h2.1z" id="Layer_1"/></svg>