<svg xmlns="http://www.w3.org/2000/svg" viewBox="0 0 773.3 773.3"><style>.st0{fill:#011688}.st1{fill:#fff}.st2,.st3{fill:none;stroke:#000;stroke-miterlimit:10}.st3{stroke:#fff}</style><g id="Layer_1"><path class="st2" d="M400.1 461.2c-51.3 0-82.7-35.4-82.7-98.2v-58.8c0-62.8 31-98.2 82.7-98.2 51.3 0 82.7 35.4 82.7 98.2V363c-.4 62.3-31.4 98.2-82.7 98.2m104.4 103.5h-60.6v-31.8c79.6-17.7 129.6-85.4 129.6-199.5 0-134-69-203.9-173.4-203.9s-173.4 69.9-173.4 203.9c0 117.6 53.1 185.7 137.1 201.2V551c0 54.4 26.5 83.6 87.6 83.6h53.1v-69.9z"/><path class="st2" d="M382.3 470.4c-51.3 0-82.7-35.4-82.7-98.2v-58.8c0-62.8 31-98.2 82.7-98.2 51.3 0 82.7 35.4 82.7 98.2v58.8c-.4 62.4-31.4 98.2-82.7 98.2m104.4 103.5h-60.6v-31.8c79.6-17.7 129.6-85.4 129.6-199.5 0-134-69-203.9-173.4-203.9s-173.4 69.9-173.4 203.9c0 117.6 53.1 185.7 137.1 201.2v16.4c0 54.4 26.5 83.6 87.6 83.6h53.1v-69.9z"/><path class="st2" d="M373.3 461.9c-48.9 0-78.8-33.7-78.8-93.5v-56c0-59.8 29.5-93.5 78.8-93.5 48.9 0 78.8 33.7 78.8 93.5v56c-.4 59.4-29.9 93.5-78.8 93.5m99.4 98.6H415v-30.3c75.8-16.8 123.4-81.3 123.4-190 0-127.6-65.7-194.2-165.1-194.2s-165.1 66.6-165.1 194.2c0 112.1 50.5 176.9 130.6 191.7v15.6c0 51.8 25.3 79.6 83.4 79.6h50.5v-66.6z"/><path class="st2" d="M364.2 472.6c-48.6 0-78.4-33.5-78.4-93.1v-55.8c0-59.5 29.4-93.1 78.4-93.1 48.6 0 78.4 33.5 78.4 93.1v55.8c-.4 59.1-29.8 93.1-78.4 93.1m98.9 98.1h-57.4v-30.2c75.5-16.8 122.9-80.9 122.9-189.1 0-127.1-65.4-193.3-164.4-193.3s-164.4 66.3-164.4 193.3c0 111.5 50.3 176.1 130 190.8v15.5c0 51.6 25.2 79.3 83 79.3h50.3v-66.3z"/></g></svg>