<svg width="360" height="591" viewBox="0 0 360 591" xmlns="http://www.w3.org/2000/svg"><title>q-logo-blue</title><g stroke="#FFF" fill="none" fill-rule="evenodd"><path d="M202.16.71c-3.133 0-6.223.067-9.27.2 104.93 4.33 157.53 77.32 164.8 201.18.59-10.62.88-21.34.88-32.1C358.57 65.07 310.94.71 202.16.71zm-19.31 77.88c-54.71 0-72.73 43.13-72.73 115.22v27l4.51-27c11.22-67.32 30-108.64 74.8-115a95.953 95.953 0 0 0-6.58-.22zm72.73 128.13l-10.93 65.61c-11 66.12-29.36 107.15-72.43 114.62a92.12 92.12 0 0 0 10.64.59c54.71 0 72.73-43.12 72.73-115.86l-.01-64.96zM7.69 208.24a534.42 534.42 0 0 0-7 87.91c0 90.76 35.41 150.62 115.21 165.42L141.44 500c-.293-3.9-.44-7.9-.44-12v-26.43c-91.39-18-133.87-99.77-133.87-228.5 0-8.48.187-16.757.56-24.83zm299.38 252L255 511.78h73.35v23.48L356 504.7l-48.93-44.46zm-82.39 25.1v26.39h17.38l-17.38-26.39zm-28.24 89.96c10.7 8.69 24 14.36 42.41 14.36 14 0 25.75-2.11 38.44-9h-40.37c-15.6 0-29-1.85-40.48-5.35v-.01z"/><path d="M279.4 269.76v-73.38c0-90.11-28.32-148.69-99.77-148.69-71.45 0-99.76 58.57-99.76 148.69v73.38c0 90.11 28.32 148.68 99.76 148.68s99.77-58.57 99.77-148.68zm23.17 293.51h-75.3c-50.21 0-73.38-31.54-73.38-76V463.5c-91.39-12.23-131.3-95.9-131.3-230.43C22.59 86.31 70.23.71 179.64.71c109.41 0 157.05 85.61 157.05 232.36 0 134.53-40.55 218.2-131.31 230.43v56h97.19v43.77z"/><path d="M182.85.71h-1.69c3.26 0 6.48.13 9.64.3l2.09-.1c-3.3-.14-6.64-.2-10-.2h-.04zm-34.49 2.6C58.1 17.66 13.14 90.83 7.73 208.24c6.15-36.74 16.48-71.14 31.39-101C58 49.02 93.56 12.89 148.36 3.24v.07zm53.83 74.57a90.5 90.5 0 0 0-12.73.86c49.59 3.38 66.15 45.88 66.15 115v12.92l1.94-11.63a276.16 276.16 0 0 0 3.86-46.34c0-44.41-18.67-70.8-59.22-70.8v-.01zm155.5 124.21c-3.22 58.15-15.41 113.49-38.13 158.31-19.21 57.75-55 93.48-109.72 102.44l14.85 22.55v-23.82c91.4-18 133.88-99.77 133.88-228.5 0-10.667-.293-21-.88-31v.02zm-247.57 18.76L101.75 271a275.91 275.91 0 0 0-3.86 46.35c0 44.41 18.67 70.8 59.22 70.8a88.21 88.21 0 0 0 15.1-1.24c-46.43-5.4-62.1-47.43-62.1-114.62l.01-51.44zM141.44 500c2.79 37.24 19.2 64.34 55 75.29-8-6.54-14.59-14.78-20.67-23.62L141.44 500zM255 511.78h-12.9l10.3 2.57 2.6-2.57zm73.35 23.48l-3.22 3.55c-8.31 9.15-15.72 16.73-22.53 23v1.47h-1.62c-8.62 7.76-16.3 13.38-23.66 17.38h51l.03-45.4z"/><path d="M192.89.91l-2.09.1c101.51 5.7 145.89 90.39 145.89 232.06 0 49.74-5.55 92.53-17.12 127.33 22.71-44.82 34.9-100.17 38.13-158.31C350.43 78.23 297.83 5.25 192.9.91h-.01zm-13.25 46.78c-71.44 0-99.76 58.57-99.76 148.69v73.38c0 90.11 28.32 148.69 99.76 148.69s99.77-58.57 99.77-148.69v-73.38c0-90.11-28.32-148.69-99.77-148.69zm9.8 31.11a90.52 90.52 0 0 1 12.73-.86c40.56 0 59.22 26.39 59.22 70.8a276.16 276.16 0 0 1-3.86 46.34l-1.94 11.63v65c0 72.73-18 115.86-72.73 115.86a92.11 92.11 0 0 1-10.64-.59 88.22 88.22 0 0 1-15.1 1.24c-40.55 0-59.22-26.39-59.22-70.8a275.8 275.8 0 0 1 3.85-46.42l8.37-50.2v-27c0-72.09 18-115.22 72.73-115.22 2.253 0 4.447.073 6.58.22h.01zM39.08 107.29c-14.92 29.81-25.24 64.22-31.39 101a537.25 537.25 0 0 0-.56 24.83c0 128.73 42.48 210.48 133.87 228.5V488c0 4.127.147 8.143.44 12.05l34.32 51.67c6.08 8.84 12.63 17.08 20.67 23.62 11.45 3.5 24.88 5.35 40.48 5.35h40.37c7.36-4 15-9.62 23.66-17.38h-73.67c-50.2 0-73.38-31.54-73.38-76V463.5c-91.39-12.23-131.3-95.9-131.3-230.43 0-49.07 5.32-91.3 16.5-125.78h-.01zm170.76 355.55c-1.473.24-2.96.463-4.46.67v56h97.19v42.3c6.82-6.26 14.23-13.84 22.53-23l3.22-3.55v-23.48H255l-2.6 2.57-10.3-2.57h-17.41v-26.4l-14.85-22.54z"/><path d="M190.8 1c-72 4-121.37 45.64-151.71 106.27-11.18 34.48-16.5 76.71-16.5 125.78 0 134.53 39.91 218.2 131.3 230.43v23.82c0 44.41 23.18 76 73.38 76h73.68l1.62-1.47V519.5h-97.19v-56c1.5-.2 2.987-.423 4.46-.67l-2.53-3.83c51-14.13 87.74-50.23 112.25-98.6 11.58-34.8 17.12-77.59 17.12-127.33C336.68 91.4 292.31 6.71 190.8 1m-11.17 417.44c-71.44 0-99.76-58.57-99.76-148.68v-73.38c0-90.11 28.32-148.69 99.76-148.69s99.77 58.57 99.77 148.69v73.38c0 90.11-28.32 148.68-99.77 148.68"/></g></svg>