<?xml version="1.0" encoding="utf-8"?>
<!-- Generator: Adobe Illustrator 21.1.0, SVG Export Plug-In . SVG Version: 6.00 Build 0)  -->
<svg version="1.1" xmlns="http://www.w3.org/2000/svg" xmlns:xlink="http://www.w3.org/1999/xlink" x="0px" y="0px"
	 viewBox="0 0 772.7 366.2" style="enable-background:new 0 0 772.7 366.2;" xml:space="preserve">
<style type="text/css">
	.st0{fill:#011688;}
	.st1{fill:#FFFFFF;}
	.st2{fill:none;stroke:#000000;stroke-miterlimit:10;}
	.st3{fill:none;stroke:#FFFFFF;stroke-miterlimit:10;}
</style>
<g id="background">
</g>
<g id="Layer_1">
	<g>
		<path d="M531.6,204c-13.6,0-21.9-9.4-21.9-26v-15.5c0-16.6,8.2-26,21.9-26c13.6,0,21.9,9.4,21.9,26v15.5
			C553.3,194.6,545.1,204,531.6,204 M559.1,231.4h-16V223c21-4.7,34.3-22.6,34.3-52.7c0-35.4-18.2-53.9-45.8-53.9
			c-27.6,0-45.8,18.5-45.8,53.9c0,31.1,14,49.1,36.2,53.2v4.3c0,14.4,7,22.1,23.1,22.1h14L559.1,231.4L559.1,231.4z M416.9,222.4
			h12.3V118.1h-16.5l-30,56.1H382l-29.9-56.1h-16.5v104.3h12.3v-87.7h0.7l8.8,17.3l24.8,45.4l24.9-45.4l8.8-17.4h0.7v87.8H416.9z
			 M250.8,129.2h28.9c9.8,0,15.8,5.3,15.8,14.5v5c0,9.2-6,14.5-15.8,14.5h-28.9V129.2z M250.8,174h30.9c10.8,0,17.3,5.7,17.3,16.1v5
			c0,10.4-6.5,16.1-17.3,16.1h-30.9V174z M238.1,222.4h47.3c15.4,0,26.9-13,26.9-30.2c0-17.3-13-23.7-20.5-24.2v-0.9
			c6.9-1.1,16.8-6.5,16.8-22.1c0-16.2-10.6-26.9-27.8-26.9H238v104.3H238.1z M215.3,222.4V212h-14.6v-83.3h14.6v-10.4h-41.8v10.4
			h14.6V212h-14.6v10.4H215.3z"/>
		<path d="M591.1,128.6v-4.6l-0.1-3.2h0.1l3,5.7l3.2-5.7h0.1l-0.1,3.2v4.6h2v-10.5h-2.6l-2.5,4.8h-0.1l-2.6-4.8h-2.6v10.5H591.1z
			 M584.5,128.6v-8.8h3.3v-1.8h-8.7v1.8h3.3v8.8H584.5z"/>
	</g>
</g>
</svg>
