<?xml version="1.0" encoding="UTF-8"?>
<svg width="427px" height="134px" viewBox="0 0 427 134" version="1.1" xmlns="http://www.w3.org/2000/svg" xmlns:xlink="http://www.w3.org/1999/xlink">
    <!-- Generator: Sketch 45.1 (43504) - http://www.bohemiancoding.com/sketch -->
    <title>ibm-q-trademark-white</title>
    <desc>Created with Sketch.</desc>
    <defs></defs>
    <g id="Page-1" stroke="none" stroke-width="1" fill="none" fill-rule="evenodd">
        <g id="ibm-q-trademark-white" fill-rule="nonzero" fill="#FFFFFF">
            <path d="M358.6,88 C345,88 336.7,78.6 336.7,62 L336.7,46.5 C336.7,29.9 344.9,20.5 358.6,20.5 C372.2,20.5 380.5,29.9 380.5,46.5 L380.5,62 C380.3,78.6 372.1,88 358.6,88 L358.6,88 Z M386.1,115.4 L370.1,115.4 L370.1,107 C391.1,102.3 404.4,84.4 404.4,54.3 C404.4,18.9 386.2,0.4 358.6,0.4 C331,0.4 312.8,18.9 312.8,54.3 C312.8,85.4 326.8,103.4 349,107.5 L349,111.8 C349,126.2 356,133.9 372.1,133.9 L386.1,133.9 L386.1,115.4 L386.1,115.4 Z M243.9,106.4 L256.2,106.4 L256.2,2.1 L239.7,2.1 L209.7,58.2 L209,58.2 L179.1,2.1 L162.6,2.1 L162.6,106.4 L174.9,106.4 L174.9,18.7 L175.6,18.7 L184.4,36 L209.2,81.4 L234.1,36 L242.9,18.6 L243.6,18.6 L243.6,106.4 L243.9,106.4 L243.9,106.4 Z M77.8,13.2 L106.7,13.2 C116.5,13.2 122.5,18.5 122.5,27.7 L122.5,32.7 C122.5,41.9 116.5,47.2 106.7,47.2 L77.8,47.2 L77.8,13.2 L77.8,13.2 Z M77.8,58 L108.7,58 C119.5,58 126,63.7 126,74.1 L126,79.1 C126,89.5 119.5,95.2 108.7,95.2 L77.8,95.2 L77.8,58 L77.8,58 Z M65.1,106.4 L112.4,106.4 C127.8,106.4 139.3,93.4 139.3,76.2 C139.3,58.9 126.3,52.5 118.8,52 L118.8,51.1 C125.7,50 135.6,44.6 135.6,29 C135.6,12.8 125,2.1 107.8,2.1 L65,2.1 L65,106.4 L65.1,106.4 L65.1,106.4 Z M42.3,106.4 L42.3,96 L27.7,96 L27.7,12.7 L42.3,12.7 L42.3,2.3 L0.5,2.3 L0.5,12.7 L15.1,12.7 L15.1,96 L0.5,96 L0.5,106.4 L42.3,106.4 Z" id="Shape"></path>
            <path d="M418.1,12.6 L418.1,8 L418,4.8 L418.1,4.8 L421.1,10.5 L424.3,4.8 L424.4,4.8 L424.3,8 L424.3,12.6 L426.3,12.6 L426.3,2.1 L423.7,2.1 L421.2,6.9 L421.1,6.9 L418.5,2.1 L415.9,2.1 L415.9,12.6 L418.1,12.6 Z M411.5,12.6 L411.5,3.8 L414.8,3.8 L414.8,2 L406.1,2 L406.1,3.8 L409.4,3.8 L409.4,12.6 L411.5,12.6 Z" id="Shape"></path>
        </g>
    </g>
</svg>