<?xml version="1.0" encoding="utf-8"?>
<!-- Generator: Adobe Illustrator 21.1.0, SVG Export Plug-In . SVG Version: 6.00 Build 0)  -->
<svg version="1.1" xmlns="http://www.w3.org/2000/svg" xmlns:xlink="http://www.w3.org/1999/xlink" x="0px" y="0px"
	 viewBox="0 0 773.3 773.3" style="enable-background:new 0 0 773.3 773.3;" xml:space="preserve">
<style type="text/css">
	.st0{fill:#011688;}
	.st1{fill:#FFFFFF;}
	.st2{fill:none;stroke:#000000;stroke-miterlimit:10;}
	.st3{fill:none;stroke:#FFFFFF;stroke-miterlimit:10;}
</style>
<g id="background">
</g>
<g id="Layer_1">
	<g>
		<g>
			<path class="st2" d="M400.1,461.2c-51.3,0-82.7-35.4-82.7-98.2v-58.8c0-62.8,31-98.2,82.7-98.2c51.3,0,82.7,35.4,82.7,98.2V363
				C482.4,425.3,451.4,461.2,400.1,461.2 M504.5,564.7h-60.6v-31.8c79.6-17.7,129.6-85.4,129.6-199.5c0-134-69-203.9-173.4-203.9
				s-173.4,69.9-173.4,203.9c0,117.6,53.1,185.7,137.1,201.2v16.4c0,54.4,26.5,83.6,87.6,83.6h53.1L504.5,564.7L504.5,564.7z"/>
		</g>
		<g>
			<path class="st2" d="M382.3,470.4c-51.3,0-82.7-35.4-82.7-98.2v-58.8c0-62.8,31-98.2,82.7-98.2c51.3,0,82.7,35.4,82.7,98.2v58.8
				C464.6,434.6,433.6,470.4,382.3,470.4 M486.7,573.9h-60.6v-31.8c79.6-17.7,129.6-85.4,129.6-199.5c0-134-69-203.9-173.4-203.9
				s-173.4,69.9-173.4,203.9c0,117.6,53.1,185.7,137.1,201.2v16.4c0,54.4,26.5,83.6,87.6,83.6h53.1L486.7,573.9L486.7,573.9z"/>
		</g>
		<g>
			<path class="st2" d="M373.3,461.9c-48.9,0-78.8-33.7-78.8-93.5v-56c0-59.8,29.5-93.5,78.8-93.5c48.9,0,78.8,33.7,78.8,93.5v56
				C451.7,427.8,422.2,461.9,373.3,461.9 M472.7,560.5H415v-30.3c75.8-16.8,123.4-81.3,123.4-190c0-127.6-65.7-194.2-165.1-194.2
				s-165.1,66.6-165.1,194.2c0,112.1,50.5,176.9,130.6,191.7v15.6c0,51.8,25.3,79.6,83.4,79.6h50.5L472.7,560.5L472.7,560.5z"/>
		</g>
		<g>
			<path class="st2" d="M364.2,472.6c-48.6,0-78.4-33.5-78.4-93.1v-55.8c0-59.5,29.4-93.1,78.4-93.1c48.6,0,78.4,33.5,78.4,93.1
				v55.8C442.2,438.6,412.8,472.6,364.2,472.6 M463.1,570.7h-57.4v-30.2c75.5-16.8,122.9-80.9,122.9-189.1
				c0-127.1-65.4-193.3-164.4-193.3s-164.4,66.3-164.4,193.3c0,111.5,50.3,176.1,130,190.8v15.5c0,51.6,25.2,79.3,83,79.3h50.3
				L463.1,570.7L463.1,570.7z"/>
		</g>
	</g>
</g>
</svg>
