<?xml version="1.0" encoding="UTF-8"?>
<svg width="360px" height="591px" viewBox="0 0 360 591" version="1.1" xmlns="http://www.w3.org/2000/svg" xmlns:xlink="http://www.w3.org/1999/xlink">
    <!-- Generator: Sketch 45.1 (43504) - http://www.bohemiancoding.com/sketch -->
    <title>q-logo-blue</title>
    <desc>Created with Sketch.</desc>
    <defs></defs>
    <g id="Page-1" stroke="none" stroke-width="1" fill="none" fill-rule="evenodd">
        <g id="q-logo-blue" stroke="#FFFFFF">
            <g id="Layer_1">
                <path d="M202.16,0.71 C199.026667,0.71 195.936667,0.776666667 192.89,0.91 C297.82,5.24 350.42,78.23 357.69,202.09 C358.28,191.47 358.57,180.75 358.57,169.99 C358.57,65.07 310.94,0.71 202.16,0.71 L202.16,0.71 Z M182.85,78.59 C128.14,78.59 110.12,121.72 110.12,193.81 L110.12,220.81 L114.63,193.81 C125.85,126.49 144.63,85.17 189.43,78.81 C187.296667,78.6633333 185.103333,78.59 182.85,78.59 L182.85,78.59 Z M255.58,206.72 L244.65,272.33 C233.65,338.45 215.29,379.48 172.22,386.95 C175.752311,387.351811 179.30492,387.548807 182.86,387.54 C237.57,387.54 255.59,344.42 255.59,271.68 L255.58,206.72 Z M7.69,208.24 C2.93875199,237.300443 0.597449274,266.70386 0.69,296.15 C0.69,386.91 36.1,446.77 115.9,461.57 L141.44,500 C141.146667,496.1 141,492.1 141,488 L141,461.57 C49.61,443.57 7.13,361.8 7.13,233.07 C7.13,224.59 7.31666667,216.313333 7.69,208.24 L7.69,208.24 Z M307.07,460.24 L255,511.78 L328.35,511.78 L328.35,535.26 L356,504.7 L307.07,460.24 Z M224.68,485.34 L224.68,511.73 L242.06,511.73 L224.68,485.34 Z M196.44,575.3 C207.14,583.99 220.44,589.66 238.85,589.66 C252.85,589.66 264.6,587.55 277.29,580.66 L236.92,580.66 C221.32,580.66 207.92,578.81 196.44,575.31 L196.44,575.3 Z" id="Shape"></path>
                <path d="M279.4,269.76 L279.4,196.38 C279.4,106.27 251.08,47.69 179.63,47.69 C108.18,47.69 79.87,106.26 79.87,196.38 L79.87,269.76 C79.87,359.87 108.19,418.44 179.63,418.44 C251.07,418.44 279.4,359.87 279.4,269.76 L279.4,269.76 Z M302.57,563.27 L227.27,563.27 C177.06,563.27 153.89,531.73 153.89,487.27 L153.89,463.5 C62.5,451.27 22.59,367.6 22.59,233.07 C22.59,86.31 70.23,0.71 179.64,0.71 C289.05,0.71 336.69,86.32 336.69,233.07 C336.69,367.6 296.14,451.27 205.38,463.5 L205.38,519.5 L302.57,519.5 L302.57,563.27 Z" id="Shape"></path>
                <path d="M182.85,0.71 L181.16,0.71 C184.42,0.71 187.64,0.84 190.8,1.01 L192.89,0.91 C189.59,0.77 186.25,0.71 182.89,0.71 L182.85,0.71 Z M148.36,3.31 C58.1,17.66 13.14,90.83 7.73,208.24 C13.88,171.5 24.21,137.1 39.12,107.24 C58,49.02 93.56,12.89 148.36,3.24 L148.36,3.31 Z M202.19,77.88 C197.931718,77.8668169 193.677816,78.1541976 189.46,78.74 C239.05,82.12 255.61,124.62 255.61,193.74 L255.61,206.66 L257.55,195.03 C260.137165,179.719322 261.428408,164.217716 261.41,148.69 C261.41,104.28 242.74,77.89 202.19,77.89 L202.19,77.88 Z M357.69,202.09 C354.47,260.24 342.28,315.58 319.56,360.4 C300.35,418.15 264.56,453.88 209.84,462.84 L224.69,485.39 L224.69,461.57 C316.09,443.57 358.57,361.8 358.57,233.07 C358.57,222.403333 358.276667,212.07 357.69,202.07 L357.69,202.09 Z M110.12,220.85 L101.75,271 C99.1610939,286.313822 97.8698407,301.818897 97.89,317.35 C97.89,361.76 116.56,388.15 157.11,388.15 C162.169581,388.170491 167.221544,387.755628 172.21,386.91 C125.78,381.51 110.11,339.48 110.11,272.29 L110.12,220.85 Z M141.44,500 C144.23,537.24 160.64,564.34 196.44,575.29 C188.44,568.75 181.85,560.51 175.77,551.67 L141.44,500 Z M255,511.78 L242.1,511.78 L252.4,514.35 L255,511.78 Z M328.35,535.26 L325.13,538.81 C316.82,547.96 309.41,555.54 302.6,561.81 L302.6,563.28 L300.98,563.28 C292.36,571.04 284.68,576.66 277.32,580.66 L328.32,580.66 L328.35,535.26 Z" id="Shape"></path>
                <path d="M192.89,0.91 L190.8,1.01 C292.31,6.71 336.69,91.4 336.69,233.07 C336.69,282.81 331.14,325.6 319.57,360.4 C342.28,315.58 354.47,260.23 357.7,202.09 C350.43,78.23 297.83,5.25 192.9,0.91 L192.89,0.91 Z M179.64,47.69 C108.2,47.69 79.88,106.26 79.88,196.38 L79.88,269.76 C79.88,359.87 108.2,418.45 179.64,418.45 C251.08,418.45 279.41,359.88 279.41,269.76 L279.41,196.38 C279.41,106.27 251.09,47.69 179.64,47.69 L179.64,47.69 Z M189.44,78.8 C193.657823,78.2142638 197.911721,77.9268834 202.17,77.94 C242.73,77.94 261.39,104.33 261.39,148.74 C261.408408,164.267716 260.117165,179.769322 257.53,195.08 L255.59,206.71 L255.59,271.71 C255.59,344.44 237.59,387.57 182.86,387.57 C179.304919,387.57883 175.752309,387.381833 172.22,386.98 C167.231538,387.825578 162.179579,388.240441 157.12,388.22 C116.57,388.22 97.9,361.83 97.9,317.42 C97.8720675,301.865786 99.1599928,286.337086 101.75,271 L110.12,220.8 L110.12,193.8 C110.12,121.71 128.12,78.58 182.85,78.58 C185.103333,78.58 187.296667,78.6533333 189.43,78.8 L189.44,78.8 Z M39.08,107.29 C24.16,137.1 13.84,171.51 7.69,208.29 C7.31666667,216.356667 7.13,224.633333 7.13,233.12 C7.13,361.85 49.61,443.6 141,461.62 L141,488 C141,492.126667 141.146667,496.143333 141.44,500.05 L175.76,551.72 C181.84,560.56 188.39,568.8 196.43,575.34 C207.88,578.84 221.31,580.69 236.91,580.69 L277.28,580.69 C284.64,576.69 292.28,571.07 300.94,563.31 L227.27,563.31 C177.07,563.31 153.89,531.77 153.89,487.31 L153.89,463.5 C62.5,451.27 22.59,367.6 22.59,233.07 C22.59,184 27.91,141.77 39.09,107.29 L39.08,107.29 Z M209.84,462.84 C208.366667,463.08 206.88,463.303333 205.38,463.51 L205.38,519.51 L302.57,519.51 L302.57,561.81 C309.39,555.55 316.8,547.97 325.1,538.81 L328.32,535.26 L328.32,511.78 L255,511.78 L252.4,514.35 L242.1,511.78 L224.69,511.78 L224.69,485.38 L209.84,462.84 Z" id="Shape"></path>
                <path d="M190.8,1 C118.8,5 69.43,46.64 39.09,107.27 C27.91,141.75 22.59,183.98 22.59,233.05 C22.59,367.58 62.5,451.25 153.89,463.48 L153.89,487.3 C153.89,531.71 177.07,563.3 227.27,563.3 L300.95,563.3 L302.57,561.83 L302.57,519.5 L205.38,519.5 L205.38,463.5 C206.88,463.3 208.366667,463.076667 209.84,462.83 L207.31,459 C258.31,444.87 295.05,408.77 319.56,360.4 C331.14,325.6 336.68,282.81 336.68,233.07 C336.68,91.4 292.31,6.71 190.8,1 M179.63,418.44 C108.19,418.44 79.87,359.87 79.87,269.76 L79.87,196.38 C79.87,106.27 108.19,47.69 179.63,47.69 C251.07,47.69 279.4,106.26 279.4,196.38 L279.4,269.76 C279.4,359.87 251.08,418.44 179.63,418.44" id="Shape"></path>
            </g>
        </g>
    </g>
</svg>